<?xml version="1.0" encoding="iso-8859-1"?>
<!-- Generator: Adobe Illustrator 19.0.0, SVG Export Plug-In . SVG Version: 6.00 Build 0)  -->
<svg version="1.1" id="Capa_1" xmlns="http://www.w3.org/2000/svg" xmlns:xlink="http://www.w3.org/1999/xlink" x="0px" y="0px"
	 viewBox="0 0 512 512" style="enable-background:new 0 0 512 512;" xml:space="preserve">
<g transform="matrix(1.25 0 0 -1.25 0 45)">
	<g>
		<g>
			<g>
				<path style="fill:#D52B1E;" d="M45.511-20.889C20.378-20.889,0-41.266,0-66.4v-204.8c0-25.134,20.378-45.511,45.511-45.511
					h68.267v295.822H45.511z"/>
				<path style="fill:#D52B1E;" d="M364.089-20.889h-68.267v-295.822h68.267c25.134,0,45.511,20.378,45.511,45.511v204.8
					C409.6-41.266,389.222-20.889,364.089-20.889"/>
			</g>
			<path style="fill:#EEEEEE;" d="M113.778-316.711h182.044v295.822H113.778V-316.711z"/>
			<path style="fill:#D52B1E;" d="M211.797-215.597c13.631-1.582,25.85-3.004,39.47-4.562l-3.47,11.401
				c-0.558,1.991,0.25,4.187,1.809,5.404l39.583,32.245l-8.192,3.857c-3.607,1.286-2.605,3.322-1.308,8.215l6.042,22.027
				l-22.994-4.858c-2.253-0.33-3.743,1.092-4.085,2.458l-2.958,10.365l-18.182-20.412c-2.583-3.265-7.817-3.265-6.189,4.278
				l7.771,41.358l-10.422-5.404c-2.924-1.638-5.848-1.911-7.487,1.013l-14.382,26.92l-0.011-0.671v0.671l-14.393-26.92
				c-1.638-2.924-4.551-2.651-7.475-1.013l-10.422,5.404l7.76-41.358c1.638-7.543-3.607-7.543-6.19-4.278l-18.182,20.412
				l-2.958-10.365c-0.341-1.365-1.843-2.788-4.085-2.458l-22.983,4.858l6.042-22.027c1.286-4.892,2.287-6.929-1.32-8.215
				l-8.192-3.857l39.583-32.245c1.57-1.217,2.355-3.413,1.798-5.404l-3.47-11.401c13.642,1.559,25.862,2.981,39.492,4.562
				c1.206,0,1.991-0.671,1.991-2.059l-2.435-42.143h10.889l-2.435,42.143C209.806-216.268,210.591-215.597,211.797-215.597"/>
		</g>
	</g>
</g>
<g>
</g>
<g>
</g>
<g>
</g>
<g>
</g>
<g>
</g>
<g>
</g>
<g>
</g>
<g>
</g>
<g>
</g>
<g>
</g>
<g>
</g>
<g>
</g>
<g>
</g>
<g>
</g>
<g>
</g>
</svg>
